<svg width="278" height="89" viewBox="0 0 278 89" fill="none" xmlns="http://www.w3.org/2000/svg">
<path d="M43.1 28.4429C43.9 28.4429 44.6333 28.7596 45.3 29.3929C46 29.9929 46.35 30.7596 46.35 31.6929C46.35 31.9929 46.3 32.3262 46.2 32.6929L36.35 61.6929C36.15 62.2596 35.8 62.7096 35.3 63.0429C34.8 63.3762 34.25 63.5596 33.65 63.5929C33.05 63.5929 32.4833 63.4262 31.95 63.0929C31.4167 62.7596 31 62.2762 30.7 61.6429L23.6 45.4929L16.45 61.6429C16.15 62.2762 15.7333 62.7596 15.2 63.0929C14.6667 63.4262 14.1 63.5929 13.5 63.5929C12.9 63.5596 12.35 63.3762 11.85 63.0429C11.35 62.7096 11 62.2596 10.8 61.6929L0.95 32.6929C0.85 32.3262 0.8 31.9929 0.8 31.6929C0.8 30.7596 1.13333 29.9929 1.8 29.3929C2.5 28.7596 3.26667 28.4429 4.1 28.4429C4.76667 28.4429 5.36667 28.6262 5.9 28.9929C6.43333 29.3262 6.8 29.7929 7 30.3929L14.45 52.9929L20.95 37.3929C21.2167 36.7929 21.6 36.3262 22.1 35.9929C22.6 35.6262 23.1667 35.4596 23.8 35.4929C24.4333 35.4596 24.9833 35.6262 25.45 35.9929C25.95 36.3262 26.3333 36.7929 26.6 37.3929L32.75 52.8429L40.15 30.3929C40.35 29.7929 40.7167 29.3262 41.25 28.9929C41.8167 28.6262 42.4333 28.4429 43.1 28.4429ZM71.6285 36.3429C72.4952 36.3429 73.2119 36.6262 73.7785 37.1929C74.3452 37.7596 74.6285 38.4929 74.6285 39.3929V60.5429C74.6285 61.4096 74.3452 62.1429 73.7785 62.7429C73.2119 63.3096 72.4952 63.5929 71.6285 63.5929C70.7619 63.5929 70.0452 63.3096 69.4785 62.7429C68.9452 62.1762 68.6618 61.4596 68.6285 60.5929C67.7952 61.5596 66.6618 62.3929 65.2285 63.0929C63.8285 63.7596 62.3452 64.0929 60.7785 64.0929C58.4785 64.0929 56.3952 63.5096 54.5285 62.3429C52.6618 61.1429 51.1785 59.4929 50.0785 57.3929C49.0118 55.2929 48.4785 52.9096 48.4785 50.2429C48.4785 47.5762 49.0118 45.1929 50.0785 43.0929C51.1452 40.9596 52.5952 39.3096 54.4285 38.1429C56.2952 36.9429 58.3452 36.3429 60.5785 36.3429C62.1785 36.3429 63.6785 36.6429 65.0785 37.2429C66.4785 37.8096 67.6618 38.5429 68.6285 39.4429V39.3929C68.6285 38.5262 68.9118 37.8096 69.4785 37.2429C70.0452 36.6429 70.7619 36.3429 71.6285 36.3429ZM61.5285 58.5929C63.6952 58.5929 65.4619 57.8096 66.8285 56.2429C68.1952 54.6429 68.8785 52.6429 68.8785 50.2429C68.8785 47.8429 68.1952 45.8429 66.8285 44.2429C65.4619 42.6429 63.6952 41.8429 61.5285 41.8429C59.3952 41.8429 57.6452 42.6429 56.2785 44.2429C54.9118 45.8429 54.2285 47.8429 54.2285 50.2429C54.2285 52.6429 54.8952 54.6429 56.2285 56.2429C57.5952 57.8096 59.3618 58.5929 61.5285 58.5929ZM94.0309 57.9429C94.4975 57.9429 94.9142 58.1762 95.2809 58.6429C95.6809 59.0762 95.8809 59.6596 95.8809 60.3929C95.8809 61.2929 95.3809 62.0596 94.3809 62.6929C93.4142 63.2929 92.3142 63.5929 91.0809 63.5929C89.0142 63.5929 87.2642 63.1596 85.8309 62.2929C84.4309 61.3929 83.7309 59.5096 83.7309 56.6429V42.8429H81.4309C80.6309 42.8429 79.9642 42.5762 79.4309 42.0429C78.8975 41.5096 78.6309 40.8429 78.6309 40.0429C78.6309 39.2762 78.8975 38.6429 79.4309 38.1429C79.9642 37.6096 80.6309 37.3429 81.4309 37.3429H83.7309V34.1429C83.7309 33.2762 84.0142 32.5596 84.5809 31.9929C85.1809 31.3929 85.9142 31.0929 86.7809 31.0929C87.6142 31.0929 88.3142 31.3929 88.8809 31.9929C89.4475 32.5596 89.7309 33.2762 89.7309 34.1429V37.3429H93.2809C94.0809 37.3429 94.7475 37.6096 95.2809 38.1429C95.8142 38.6762 96.0809 39.3429 96.0809 40.1429C96.0809 40.9096 95.8142 41.5596 95.2809 42.0929C94.7475 42.5929 94.0809 42.8429 93.2809 42.8429H89.7309V56.3929C89.7309 57.0929 89.9142 57.6096 90.2809 57.9429C90.6475 58.2429 91.1475 58.3929 91.7809 58.3929C92.0475 58.3929 92.4142 58.3262 92.8809 58.1929C93.2809 58.0262 93.6642 57.9429 94.0309 57.9429ZM112.996 36.3429C115.829 36.3429 118.112 36.7929 119.846 37.6929C121.579 38.5596 122.446 39.7262 122.446 41.1929C122.446 41.9262 122.229 42.5762 121.796 43.1429C121.362 43.6762 120.796 43.9429 120.096 43.9429C119.562 43.9429 119.129 43.8762 118.796 43.7429C118.462 43.5762 118.129 43.3762 117.796 43.1429C117.496 42.8762 117.196 42.6596 116.896 42.4929C116.562 42.3262 116.062 42.1762 115.396 42.0429C114.762 41.9096 114.246 41.8429 113.846 41.8429C111.346 41.8429 109.379 42.6262 107.946 44.1929C106.546 45.7262 105.846 47.7429 105.846 50.2429C105.846 52.6429 106.562 54.6429 107.996 56.2429C109.429 57.8096 111.262 58.5929 113.496 58.5929C115.129 58.5929 116.346 58.3929 117.146 57.9929C117.346 57.8929 117.612 57.7262 117.946 57.4929C118.312 57.2262 118.646 57.0262 118.946 56.8929C119.246 56.7596 119.612 56.6929 120.046 56.6929C120.879 56.6929 121.529 56.9596 121.996 57.4929C122.496 58.0262 122.746 58.7096 122.746 59.5429C122.746 60.3429 122.279 61.0929 121.346 61.7929C120.412 62.4929 119.179 63.0596 117.646 63.4929C116.112 63.8929 114.479 64.0929 112.746 64.0929C110.179 64.0929 107.912 63.4929 105.946 62.2929C104.012 61.0929 102.512 59.4429 101.446 57.3429C100.379 55.2096 99.8457 52.8429 99.8457 50.2429C99.8457 47.5429 100.396 45.1429 101.496 43.0429C102.629 40.9429 104.196 39.3096 106.196 38.1429C108.196 36.9429 110.462 36.3429 112.996 36.3429ZM141.128 36.3429C144.428 36.3429 146.711 37.3596 147.978 39.3929C149.245 41.3929 149.878 44.1762 149.878 47.7429V60.5429C149.878 61.4096 149.595 62.1429 149.028 62.7429C148.461 63.3096 147.745 63.5929 146.878 63.5929C146.011 63.5929 145.295 63.3096 144.728 62.7429C144.161 62.1429 143.878 61.4096 143.878 60.5429V47.7429C143.878 45.9096 143.511 44.4762 142.778 43.4429C142.078 42.3762 140.828 41.8429 139.028 41.8429C137.161 41.8429 135.695 42.4096 134.628 43.5429C133.595 44.6429 133.078 46.0429 133.078 47.7429V60.5429C133.078 61.4096 132.795 62.1429 132.228 62.7429C131.661 63.3096 130.945 63.5929 130.078 63.5929C129.211 63.5929 128.495 63.3096 127.928 62.7429C127.361 62.1429 127.078 61.4096 127.078 60.5429V29.6429C127.078 28.7762 127.361 28.0596 127.928 27.4929C128.495 26.8929 129.211 26.5929 130.078 26.5929C130.945 26.5929 131.661 26.8929 132.228 27.4929C132.795 28.0596 133.078 28.7762 133.078 29.6429V40.6929C133.978 39.4929 135.111 38.4762 136.478 37.6429C137.878 36.7762 139.428 36.3429 141.128 36.3429ZM168.125 64.0929C165.725 64.0929 163.592 63.7929 161.725 63.1929C159.858 62.5929 158.108 61.5762 156.475 60.1429C155.575 59.3429 155.125 58.4596 155.125 57.4929C155.125 56.7262 155.408 56.0596 155.975 55.4929C156.542 54.8929 157.225 54.5929 158.025 54.5929C158.658 54.5929 159.225 54.7929 159.725 55.1929C161.058 56.2929 162.358 57.0929 163.625 57.5929C164.892 58.0929 166.392 58.3429 168.125 58.3429C169.992 58.3429 171.592 57.9262 172.925 57.0929C174.292 56.2596 174.975 55.2262 174.975 53.9929C174.975 52.4929 174.308 51.3262 172.975 50.4929C171.642 49.6262 169.525 48.9762 166.625 48.5429C159.325 47.4762 155.675 44.0762 155.675 38.3429C155.675 36.2429 156.225 34.4262 157.325 32.8929C158.425 31.3262 159.925 30.1429 161.825 29.3429C163.725 28.5096 165.842 28.0929 168.175 28.0929C170.275 28.0929 172.242 28.4096 174.075 29.0429C175.942 29.6762 177.492 30.5096 178.725 31.5429C179.692 32.3096 180.175 33.1929 180.175 34.1929C180.175 34.9596 179.892 35.6429 179.325 36.2429C178.758 36.8096 178.092 37.0929 177.325 37.0929C176.825 37.0929 176.375 36.9429 175.975 36.6429C175.108 35.9429 173.892 35.3096 172.325 34.7429C170.792 34.1429 169.408 33.8429 168.175 33.8429C166.075 33.8429 164.442 34.2429 163.275 35.0429C162.142 35.8096 161.575 36.8262 161.575 38.0929C161.575 39.5262 162.158 40.6096 163.325 41.3429C164.525 42.0762 166.392 42.6762 168.925 43.1429C171.792 43.6429 174.075 44.2929 175.775 45.0929C177.508 45.8596 178.808 46.9262 179.675 48.2929C180.542 49.6262 180.975 51.4096 180.975 53.6429C180.975 55.7429 180.375 57.5929 179.175 59.1929C178.008 60.7596 176.442 61.9762 174.475 62.8429C172.508 63.6762 170.392 64.0929 168.125 64.0929ZM200.259 36.3429C203.559 36.3429 205.842 37.3596 207.109 39.3929C208.376 41.3929 209.009 44.1762 209.009 47.7429V60.5429C209.009 61.4096 208.726 62.1429 208.159 62.7429C207.592 63.3096 206.876 63.5929 206.009 63.5929C205.142 63.5929 204.426 63.3096 203.859 62.7429C203.292 62.1429 203.009 61.4096 203.009 60.5429V47.7429C203.009 45.9096 202.642 44.4762 201.909 43.4429C201.209 42.3762 199.959 41.8429 198.159 41.8429C196.292 41.8429 194.826 42.4096 193.759 43.5429C192.726 44.6429 192.209 46.0429 192.209 47.7429V60.5429C192.209 61.4096 191.926 62.1429 191.359 62.7429C190.792 63.3096 190.076 63.5929 189.209 63.5929C188.342 63.5929 187.626 63.3096 187.059 62.7429C186.492 62.1429 186.209 61.4096 186.209 60.5429V29.6429C186.209 28.7762 186.492 28.0596 187.059 27.4929C187.626 26.8929 188.342 26.5929 189.209 26.5929C190.076 26.5929 190.792 26.8929 191.359 27.4929C191.926 28.0596 192.209 28.7762 192.209 29.6429V40.6929C193.109 39.4929 194.242 38.4762 195.609 37.6429C197.009 36.7762 198.559 36.3429 200.259 36.3429ZM260.069 36.3429C262.369 36.3429 264.452 36.9429 266.319 38.1429C268.185 39.3096 269.652 40.9429 270.719 43.0429C271.819 45.1429 272.369 47.5262 272.369 50.1929C272.369 52.8596 271.835 55.2596 270.769 57.3929C269.702 59.4929 268.235 61.1429 266.369 62.3429C264.535 63.5096 262.502 64.0929 260.269 64.0929C258.669 64.0929 257.152 63.7762 255.719 63.1429C254.319 62.4762 253.152 61.6762 252.219 60.7429V70.5429C252.219 71.4096 251.935 72.1262 251.369 72.6929C250.802 73.2929 250.085 73.5929 249.219 73.5929C248.352 73.5929 247.635 73.3096 247.069 72.7429C246.502 72.1762 246.219 71.4429 246.219 70.5429V39.8929C246.219 39.0262 246.502 38.3096 247.069 37.7429C247.635 37.1429 248.352 36.8429 249.219 36.8429C250.085 36.8429 250.802 37.1429 251.369 37.7429C251.935 38.3096 252.219 39.0262 252.219 39.8929V40.0929C253.019 39.0929 254.135 38.2262 255.569 37.4929C257.002 36.7262 258.502 36.3429 260.069 36.3429ZM259.319 58.5929C261.452 58.5929 263.202 57.7929 264.569 56.1929C265.935 54.5929 266.619 52.5929 266.619 50.1929C266.619 47.7929 265.935 45.8096 264.569 44.2429C263.235 42.6429 261.485 41.8429 259.319 41.8429C257.152 41.8429 255.385 42.6429 254.019 44.2429C252.652 45.8096 251.969 47.7929 251.969 50.1929C251.969 52.5929 252.652 54.5929 254.019 56.1929C255.385 57.7929 257.152 58.5929 259.319 58.5929Z" fill="#AA6455"/>
<g clip-path="url(#clip0)">
<path d="M243.408 52.3342H241.753V47.3687H243.408C243.865 47.3687 244.236 47.7392 244.236 48.1963V51.5066C244.236 51.9636 243.865 52.3342 243.408 52.3342Z" fill="#D5DCEC"/>
<path d="M219.749 30.817L219.116 36.8827L214.443 40.748L217.47 31.6658C217.639 31.1589 218.113 30.817 218.648 30.817H219.749Z" fill="#D5DCEC"/>
<path d="M233.964 30.817L234.597 36.8827L239.27 40.748L236.243 31.6658C236.074 31.1589 235.599 30.817 235.065 30.817H233.964Z" fill="#D5DCEC"/>
<path d="M233.964 68.8859L234.597 62.8202L239.27 58.9549L236.243 68.0371C236.074 68.544 235.599 68.8859 235.065 68.8859H233.964Z" fill="#D5DCEC"/>
<path d="M219.749 68.8859L219.116 62.8201L214.443 58.9548L217.47 68.0371C217.639 68.544 218.113 68.8859 218.648 68.8859H219.749Z" fill="#D5DCEC"/>
<path d="M233.39 34.1273H220.322C219.833 34.1273 219.45 33.7045 219.499 33.2174L220.087 27.342C220.171 26.4958 220.883 25.8514 221.734 25.8514H231.979C232.829 25.8514 233.541 26.4958 233.626 27.3419L234.214 33.2173C234.262 33.7045 233.88 34.1273 233.39 34.1273Z" fill="#AA6455"/>
<path d="M231.822 32.4721H221.891C221.434 32.4721 221.063 32.1016 221.063 31.6445C221.063 31.1875 221.434 30.8169 221.891 30.8169H231.822C232.279 30.8169 232.649 31.1875 232.649 31.6445C232.649 32.1016 232.279 32.4721 231.822 32.4721Z" fill="#9B5A50"/>
<path d="M220.323 65.5756H233.39C233.88 65.5756 234.262 65.9984 234.214 66.4855L233.626 72.3609C233.541 73.207 232.829 73.8513 231.979 73.8513H221.734C220.883 73.8513 220.171 73.207 220.087 72.3609L219.499 66.4855C219.45 65.9983 219.833 65.5756 220.323 65.5756Z" fill="#AA6455"/>
<path d="M221.891 67.2307H231.822C232.279 67.2307 232.649 67.6013 232.649 68.0583C232.649 68.5154 232.279 68.886 231.822 68.886H221.891C221.434 68.886 221.063 68.5154 221.063 68.0583C221.063 67.6013 221.434 67.2307 221.891 67.2307Z" fill="#9B5A50"/>
<path d="M226.856 65.5756C235.54 65.5756 242.58 58.5356 242.58 49.8514C242.58 41.1673 235.54 34.1273 226.856 34.1273C218.172 34.1273 211.132 41.1673 211.132 49.8514C211.132 58.5356 218.172 65.5756 226.856 65.5756Z" fill="#E4EAF6"/>
<path d="M226.856 63.9204C234.626 63.9204 240.925 57.6215 240.925 49.8514C240.925 42.0814 234.626 35.7825 226.856 35.7825C219.086 35.7825 212.787 42.0814 212.787 49.8514C212.787 57.6215 219.086 63.9204 226.856 63.9204Z" fill="#C7CFE2"/>
<path d="M226.856 62.2653C233.712 62.2653 239.27 56.7074 239.27 49.8514C239.27 42.9955 233.712 37.4376 226.856 37.4376C220 37.4376 214.442 42.9955 214.442 49.8514C214.442 56.7074 220 62.2653 226.856 62.2653Z" fill="white"/>
<path d="M233.477 49.2307H227.477V44.0583C227.477 43.7155 227.199 43.4376 226.856 43.4376C226.514 43.4376 226.235 43.7155 226.235 44.0583V49.2307H225.201C224.858 49.2307 224.58 49.5086 224.58 49.8514C224.58 50.1943 224.858 50.4722 225.201 50.4722H226.235V51.5066C226.235 51.8494 226.514 52.1273 226.856 52.1273C227.199 52.1273 227.477 51.8494 227.477 51.5066V50.4722H233.477C233.82 50.4722 234.098 50.1943 234.098 49.8514C234.098 49.5086 233.82 49.2307 233.477 49.2307Z" fill="#5B5D6E"/>
<path d="M226.856 51.0928C227.542 51.0928 228.098 50.537 228.098 49.8515C228.098 49.1659 227.542 48.6101 226.856 48.6101C226.171 48.6101 225.615 49.1659 225.615 49.8515C225.615 50.537 226.171 51.0928 226.856 51.0928Z" fill="#C7CFE2"/>
<path d="M216.925 50.4721H216.098C215.755 50.4721 215.477 50.1943 215.477 49.8514C215.477 49.5086 215.755 49.2307 216.098 49.2307H216.925C217.268 49.2307 217.546 49.5086 217.546 49.8514C217.546 50.1943 217.268 50.4721 216.925 50.4721Z" fill="#5B5D6E"/>
<path d="M237.615 50.4722H236.787C236.445 50.4722 236.167 50.1943 236.167 49.8514C236.167 49.5086 236.445 49.2307 236.787 49.2307H237.615C237.958 49.2307 238.236 49.5086 238.236 49.8514C238.236 50.1943 237.958 50.4722 237.615 50.4722Z" fill="#5B5D6E"/>
<path d="M226.856 61.2307C226.514 61.2307 226.236 60.9528 226.236 60.61V59.7823C226.236 59.4395 226.514 59.1616 226.856 59.1616C227.199 59.1616 227.477 59.4395 227.477 59.7823V60.61C227.477 60.9528 227.199 61.2307 226.856 61.2307Z" fill="#5B5D6E"/>
<path d="M226.856 40.5411C226.514 40.5411 226.236 40.2632 226.236 39.9204V39.0928C226.236 38.7499 226.514 38.472 226.856 38.472C227.199 38.472 227.477 38.7499 227.477 39.0928V39.9204C227.477 40.2632 227.199 40.5411 226.856 40.5411Z" fill="#5B5D6E"/>
<path d="M222.021 59.4774C221.85 59.7742 221.468 59.8794 221.172 59.7081C220.875 59.5368 220.771 59.1604 220.942 58.8638L220.946 58.8567C221.118 58.5599 221.497 58.4583 221.794 58.6296C222.091 58.8008 222.193 59.1806 222.021 59.4774Z" fill="#959CB3"/>
<path d="M232.78 40.8427C232.609 41.1395 232.227 41.2447 231.93 41.0734C231.633 40.9022 231.53 40.5258 231.701 40.2291L231.705 40.2221C231.876 39.9253 232.256 39.8237 232.553 39.9949C232.85 40.1663 232.951 40.5461 232.78 40.8427Z" fill="#959CB3"/>
<path d="M231.702 59.4773C231.873 59.7741 232.255 59.8793 232.551 59.708C232.848 59.5367 232.952 59.1603 232.781 58.8637L232.777 58.8567C232.605 58.5599 232.226 58.4582 231.929 58.6295C231.632 58.8007 231.53 59.1805 231.702 59.4773Z" fill="#959CB3"/>
<path d="M220.943 40.8427C221.114 41.1395 221.496 41.2447 221.793 41.0734C222.09 40.9022 222.193 40.5258 222.022 40.2291L222.018 40.2221C221.847 39.9253 221.467 39.8237 221.17 39.9949C220.873 40.1663 220.772 40.5461 220.943 40.8427Z" fill="#959CB3"/>
<path d="M217.235 45.011C216.938 44.8397 216.833 44.4579 217.004 44.1611C217.176 43.8643 217.552 43.7605 217.849 43.9318L217.856 43.9359C218.153 44.1072 218.254 44.4869 218.083 44.7838C217.912 45.0805 217.532 45.1823 217.235 45.011Z" fill="#959CB3"/>
<path d="M235.87 55.7696C235.573 55.5983 235.468 55.2165 235.639 54.9197C235.81 54.6229 236.187 54.5191 236.483 54.6905L236.49 54.6945C236.787 54.8658 236.889 55.2455 236.718 55.5424C236.546 55.8392 236.167 55.9409 235.87 55.7696Z" fill="#959CB3"/>
<path d="M217.235 54.691C216.938 54.8623 216.833 55.2441 217.004 55.5409C217.176 55.8378 217.552 55.9415 217.849 55.7702L217.856 55.7661C218.153 55.5949 218.254 55.2151 218.083 54.9183C217.912 54.6214 217.532 54.5196 217.235 54.691Z" fill="#959CB3"/>
<path d="M235.87 43.9324C235.573 44.1036 235.468 44.4855 235.639 44.7823C235.81 45.0791 236.187 45.1829 236.483 45.0115L236.49 45.0075C236.787 44.8362 236.889 44.4564 236.718 44.1596C236.546 43.8628 236.167 43.7611 235.87 43.9324Z" fill="#959CB3"/>
</g>
<defs>
<clipPath id="clip0">
<rect width="48" height="48" fill="white" transform="translate(203.684 25.8514)"/>
</clipPath>
</defs>
</svg>
